<svg xmlns="http://www.w3.org/2000/svg" xmlns:xlink="http://www.w3.org/1999/xlink" version="1.1" width="375" height="375" viewBox="0 0 375 375">
<defs>
<clipPath id="clip_0">
<path transform="matrix(.24,0,0,.24,0,0)" d="M0 0H1562.5V1562.5H0Z" fill-rule="evenodd"/>
</clipPath>
<clipPath id="clip_1">
<path transform="matrix(.24,0,0,.24,0,0)" d="M0 0H1562.5V1562.5H0Z" fill-rule="evenodd"/>
</clipPath>
<clipPath id="clip_2">
<path transform="matrix(.24,0,0,.24,0,0)" d="M0 0H1562.5V1562.5H0Z"/>
</clipPath>
<clipPath id="clip_3">
<path transform="matrix(.24,0,0,.24,0,0)" d="M0 0H1562.5V1562.5H0Z"/>
</clipPath>
<clipPath id="clip_4">
<path transform="matrix(.24,0,0,.24,0,0)" d="M0 453.91294H1562.5231V1108.587H0Z"/>
</clipPath>
<clipPath id="clip_5">
<path transform="matrix(.24,0,0,.24,0,0)" d="M71.875 453.91294H1490.6251C1509.6875 453.91294 1527.9691 461.48545 1541.4483 474.96464 1554.9275 488.44383 1562.4999 506.7255 1562.4999 525.78799V1036.712C1562.4999 1055.7745 1554.9275 1074.0562 1541.4483 1087.5354 1527.9691 1101.0145 1509.6875 1108.587 1490.6251 1108.587H71.875C52.812566 1108.587 34.530878 1101.0145 21.0517 1087.5354 7.572523 1074.0562 0 1055.7745 0 1036.712V525.78799C0 506.7255 7.572523 488.44383 21.0517 474.96464 34.530878 461.48545 52.812566 453.91294 71.875 453.91294Z"/>
</clipPath>
<clipPath id="clip_6">
<path transform="matrix(.24,0,0,.24,0,0)" d="M1227.8619 593.7355H1359.1119V724.9855H1227.8619Z" fill-rule="evenodd"/>
</clipPath>
<clipPath id="clip_7">
<path transform="matrix(.24,0,0,.24,0,0)" d="M128.15444 659.3269H468.77943V903.0769H128.15444Z" fill-rule="evenodd"/>
</clipPath>
<clipPath id="clip_8">
<path transform="matrix(.24,0,0,.24,0,0)" d="M0 0H1562.5V1562.5H0Z" fill-rule="evenodd"/>
</clipPath>
</defs>
<g clip-path="url(#clip_0)">
<path transform="matrix(.75,0,0,.75,0,0)" d="M0 0H500V500H0Z" fill="#ffffff"/>
</g>
<g clip-path="url(#clip_1)">
<path transform="matrix(.75,0,0,.75,0,0)" d="M0 0H500V500H0Z" fill="#ffffff"/>
</g>
<g clip-path="url(#clip_2)">
<g clip-path="url(#clip_3)">
<g clip-path="url(#clip_4)">
<g clip-path="url(#clip_5)">
<path transform="matrix(.613757,0,0,.613757,0,108.9391)" d="M0 0H611V256H0Z" fill="#04282f"/>
</g>
</g>
</g>
</g>
<g clip-path="url(#clip_6)">
<path transform="matrix(.08750782,0,0,.08750782,294.69734,142.4965)" d="M360.8 180.2C360.8 210.09999 336.59999 234.29999 306.69999 234.29999H234.69998 195.89998C157.59998 234.29999 126.49998 203.19998 126.49998 164.9V126.09999 54.09999C126.49998 24.199992 150.69998-.0000076293949 180.59998-.0000076293949 210.49997-.0000076293949 234.69998 24.199994 234.69998 54.09999V126.09999H306.69999C336.6 126.1 360.8 150.4 360.8 180.2Z" fill="#c6f2ff"/>
<path transform="matrix(.08750782,0,0,.08750782,294.69734,142.4965)" d="M0 179.5C0 149.6 24.2 125.4 54.1 125.4H126.1 164.9C203.2 125.4 234.29999 156.5 234.29999 194.8V233.6 305.6C234.29999 335.5 210.09999 359.7 180.19998 359.7 150.29999 359.7 126.09998 335.5 126.09998 305.6V233.6H54.099985C24.2 233.6 0 209.4 0 179.5Z" fill="#5a9cc0"/>
<path transform="matrix(.08750782,0,0,.08750782,294.69734,142.4965)" d="M234.3 194.8V233.6 234.3H195.9C157.59999 234.3 126.49999 203.2 126.49999 164.9V126.09999 125.399997H164.9C203.2 125.4 234.3 156.5 234.3 194.8Z" fill="#67dcff"/>
</g>
<g clip-path="url(#clip_7)">
<path transform="matrix(.31476686,0,0,.31476686,4.75732,120.98407)" d="M211.43 243.29C211.081 251.13599 204.50699 257.271 196.56699 256.88499 188.72299 256.53498 182.62499 249.87499 182.97399 242.03098 183.30399 234.38898 189.54698 228.41698 197.18799 228.41698 197.40099 228.41698 197.61499 228.41698 197.82799 228.42697 205.671 228.777 211.769 235.438 211.43 243.29Z" fill="#c6f2ff"/>
<path transform="matrix(.31476686,0,0,.31476686,4.75732,120.98407)" d="M231.917 290.509C231.587 298.14903 225.34401 304.13 217.703 304.13 217.49 304.13 217.276 304.121 217.063 304.111 209.21901 303.762 203.121 297.1 203.46 289.257 203.79901 281.61698 210.043 275.645 217.68302 275.645 217.89601 275.645 218.11002 275.645 218.32302 275.655 222.12401 275.82 225.63402 277.458 228.19301 280.269 230.763 283.072 232.091 286.709 231.917 290.509Z" fill="#c6f2ff"/>
<path transform="matrix(.31476686,0,0,.31476686,4.75732,120.98407)" d="M245.268 250.272C245.074 254.771 241.292 258.26103 236.755 258.076 234.573 257.979 232.557 257.03999 231.08301 255.43 229.60901 253.821 228.85301 251.736 228.95001 249.55399 229.14402 245.17198 232.72101 241.74799 237.10402 241.74799H237.47303C241.971 241.953 245.471 245.773 245.268 250.272Z" fill="#c6f2ff"/>
<path transform="matrix(.31476686,0,0,.31476686,4.75732,120.98407)" d="M173.743 145.376C165.308 133.62401 152.45099 126.94301 139.07199 125.98501L142.08699 130.22H142.096L161.25499 157.067C162.506 158.813 162.09899 161.228 160.353 162.468 159.675 162.962 158.88899 163.195 158.11299 163.195 156.90099 163.195 155.70899 162.62401 154.95299 161.567L132.32399 129.863 129.74399 126.23601C122.29799 127.185009 114.97799 129.95001 108.442989 134.63301 87.442989 149.69802 82.63399 178.94101 97.69998 199.94202L134.23299 250.86302 210.28499 196.30603 173.743 145.376ZM163.049 168.258C165.638 166.396 169.254 166.987 171.11499 169.575 172.97699 172.174 172.37499 175.78099 169.78699 177.642 167.18898 179.50299 163.58199 178.913 161.71999 176.313 159.859 173.725 160.46 170.119 163.049 168.258Z" fill="#ffffff"/>
<path transform="matrix(.31476686,0,0,.31476686,4.75732,120.98407)" d="M213.427 194.047 176.894 143.12599C167.499 130.02799 152.33499 122.162998 136.23 121.99899L139.071 125.98499 142.086 130.21999H142.095C153.468 131.93599 163.814 138.18099 170.6 147.63498L204.87401 195.41298 135.12401 245.46198 100.850009 197.68299C94.16 188.36598 91.504009 177.00098 93.365009 165.69699 95.227008 154.383 101.384 144.463 110.701007 137.784 117.119 133.179 124.536 130.472 132.323 129.86299L129.743 126.23599 127.251 122.75599C127.241 122.734989 127.232 122.72599 127.222 122.706989H127.212C119.669 123.96799 112.513 126.95399 106.182 131.49199 95.187 139.383 87.916 151.07599 85.725 164.435 83.524 177.788 86.665 191.206 94.547 202.20099L131.09 253.122C131.846 254.179 133.02899 254.741 134.241 254.741 135.01599 254.741 135.811 254.499 136.491 254.01399L212.543 199.448C214.28 198.206 214.678 195.782 213.427 194.047Z" fill="#c6f2ff"/>
<path transform="matrix(.31476686,0,0,.31476686,4.75732,120.98407)" d="M314.067 131.937C292.077 118.354 263.24299 125.169 249.659 147.161L218.188 198.1 297.818 247.287 329.28 196.34601C342.863 174.355 336.057 145.521 314.067 131.937ZM325.993 194.309 296.557 241.95401 223.52 196.84201 252.95601 149.18802C260.829 136.43802 274.49903 128.81803 289.518 128.81803 297.449 128.81803 305.23503 131.03702 312.031 135.23502 321.785 141.25702 328.611 150.71901 331.24803 161.88002 333.875 173.037 332.014 184.555 325.993 194.309Z" fill="#ffffff"/>
<path transform="matrix(.31476686,0,0,.31476686,4.75732,120.98407)" d="M338.782 160.094C335.67 146.927 327.613 135.747 316.104 128.64 308.086 123.686 298.894 121.07 289.519 121.07 271.795 121.07 255.66202 130.057 246.36402 145.123L214.89202 196.065C213.76702 197.886 214.32901 200.272 216.15302 201.397L295.78303 250.584C296.393 250.961 297.101 251.165 297.81904 251.165 298.11003 251.165 298.41004 251.125 298.71104 251.06 299.71003 250.827 300.57304 250.196 301.11604 249.323L332.57804 198.384C339.693 186.862 341.894 173.27 338.782 160.094ZM223.52 196.841 252.95601 149.18701C260.829 136.43701 274.49903 128.81702 289.518 128.81702 297.449 128.81702 305.23503 131.03601 312.031 135.23401 321.785 141.25601 328.611 150.718 331.24803 161.87902 333.87504 173.03801 332.014 184.55602 325.993 194.31002L296.557 241.95502 223.52 196.841Z" fill="#c6f2ff"/>
<path transform="matrix(.31476686,0,0,.31476686,4.75732,120.98407)" d="M173.743 145.376C165.308 133.62401 152.45099 126.94301 139.07199 125.98501L142.08699 130.22H142.096L161.25499 157.067C162.506 158.813 162.09899 161.228 160.353 162.468 159.675 162.962 158.88899 163.195 158.11299 163.195 156.90099 163.195 155.70899 162.62401 154.95299 161.567L132.32399 129.863 129.74399 126.23601C122.29799 127.185009 114.97799 129.95001 108.442989 134.63301 87.442989 149.69802 82.63399 178.94101 97.69998 199.94202L134.23299 250.86302 210.28499 196.30603 173.743 145.376ZM163.049 168.258C165.638 166.396 169.254 166.987 171.11499 169.575 172.97699 172.174 172.37499 175.78099 169.78699 177.642 167.18898 179.50299 163.58199 178.913 161.71999 176.313 159.859 173.725 160.46 170.119 163.049 168.258Z" fill="#c6f2ff"/>
</g>
<g clip-path="url(#clip_8)">
<text fill="#ffffff" xml:space="preserve" transform="matrix(1.0072237 0 0 1.0072237 78.63852 150.23273)" font-size="53.33" font-family="MuseoModerno" font-weight="bold"><tspan y="55" x="38.515626 78.13835 117.76108 176.84854">AAMS</tspan></text>
</g>
</svg>
